<svg viewBox="0 0 1920 1080" xmlns="http://www.w3.org/2000/svg"><path fill="#fff" d="M0 0h1920v1080H0z"/><rect x="913" y="891" width="7.4" height="7.4" fill="#14279B" rx="0" transform="matrix(.771 .62171 -.62163 .79575 860.14 -516.02)"/><rect x="271" y="150" width="6.4" height="17.4" fill="#3D56B2" rx="0" transform="matrix(.22524 .99269 -.97571 .13951 370.39 -116.461)"/><rect x="928" y="484" width="5.4" height="7.4" fill="#E6E6E6" rx="0" transform="matrix(-.86942 .4565 -.48428 -.89591 2030.851 401.96)"/><rect x="257" y="978" width="8.4" height="20.4" fill="#14279B" rx="0" transform="matrix(.58943 .6491 -.83813 .77357 818.65 17.5)"/><rect x="1903" y="175" width="9.4" height="19.4" fill="#5C7AEA" rx="0" transform="matrix(.17334 .96848 -.98284 .2777 1757.687 -1948.4)"/><rect x="1894" y="320" width="9.4" height="9.4" fill="#14279B" rx="0" transform="matrix(.68886 1.0262 -.80271 .25586 988.912 -1053.059)"/><rect x="555" y="544" width="7.4" height="21.4" fill="#5C7AEA" rx="0" transform="matrix(-1.0149 -.05246 -.3045 -1.00107 1464.889 1178.372)"/><rect x="356" y="300" width="5.4" height="14.4" fill="#14279B" rx="0" transform="matrix(.48286 .97044 -.91007 .24196 537.437 -108.967)"/><rect x="1432" y="487" width="10.4" height="27.4" fill="#3D56B2" rx="0" transform="matrix(.52744 .99572 -.93017 .13994 1331.786 -849.365)"/><rect x="1792" y="1012" width="10.4" height="23.4" fill="#14279B" rx="0" transform="matrix(-.9729 .39169 -.26104 -.92275 3750.144 1138.713)"/><rect x="854" y="846" width="7.4" height="9.4" fill="#5C7AEA" rx="0" transform="matrix(-.45368 .89155 -.89048 -.45427 2033.013 442.511)"/><rect x="541" y="367" width="7.4" height="11.4" fill="#14279B" rx="0" transform="matrix(-.25057 .81697 -1.042 -.59356 1189.91 225.47)"/><rect x="1695" y="942" width="7.4" height="17.4" fill="#3D56B2" rx="0" transform="matrix(.63665 .9723 -.82163 .31592 1582.702 -640.228)"/><rect x="186" y="757" width="8.4" height="12.4" fill="#3D56B2" rx="0" transform="matrix(.13639 .95419 -1.09765 -.3473 1260.862 880.307)"/><rect x="1438" y="986" width="6.4" height="18.4" fill="#E6E6E6" rx="0" transform="matrix(.99786 .12278 -.01746 1 0 0)"/><rect x="1646" y="634" width="9.4" height="25.4" fill="#E6E6E6" rx="0" transform="matrix(-.59165 .55127 -.86713 -.88222 3345.528 780.576)"/><rect x="222" y="1001" width="6.4" height="8.4" fill="#5C7AEA" rx="0" transform="matrix(.64181 .75575 -.76528 .65696 778.807 186.433)"/><rect x="744" y="383" width="9.4" height="18.4" fill="#3D56B2" rx="0" transform="matrix(-.8906 .43864 -.45377 -.89934 1586.163 442.659)"/><rect x="1399" y="142" width="7.4" height="18.4" fill="#E6E6E6" rx="0" transform="matrix(-.15821 1.0043 -1.01235 .10556 1783.331 -1470.622)"/><rect x="713" y="386" width="7.4" height="20.4" fill="#5C7AEA" rx="0" transform="matrix(-.79283 .55304 -.58734 -.8516 1579.917 210.87)"/><rect x="39" y="910" width="8.4" height="10.4" fill="#5C7AEA" rx="0" transform="matrix(-.25882 .8868 -.96593 -.55413 938.396 1397.24)"/><rect x="1437" y="348" width="6.4" height="17.4" fill="#5C7AEA" rx="0" transform="matrix(-.25364 .97542 -.95724 -.26136 2168.63 -1157.277)"/><rect x="1582" y="109" width="7.4" height="7.4" fill="#14279B" rx="0" transform="matrix(-.85027 .24494 -.67243 -.9824 3114.088 86.168)"/><rect x="392" y="856" width="9.4" height="11.4" fill="#14279B" rx="0" transform="matrix(.7115 .8851 -.7515 .47062 1049.169 77.308)"/><rect x="1140" y="791" width="7.4" height="16.4" fill="#3D56B2" rx="0" transform="matrix(.25823 .96848 -.9585 .2777 1683.64 -670.824)"/><rect x="720" y="644" width="5.4" height="5.4" fill="#3D56B2" rx="0" transform="matrix(.26485 1.0252 -.9382 .14408 1034.841 6.256)"/><rect x="1219" y="678" width="5.4" height="7.4" fill="#E6E6E6" rx="0" transform="matrix(-.8308 .61604 -.55991 -.7885 2542.239 509.265)"/><rect x="1479" y="341" width="8.4" height="23.4" fill="#5C7AEA" rx="0" transform="matrix(-1.00769 -.14408 -.22962 -1.0252 3137.634 1325.414)"/><rect x="972" y="759" width="7.4" height="15.4" fill="#3D56B2" rx="0" transform="matrix(.99027 -.01767 -.13917 1.01231 116.2 -146.734)"/><rect x="321" y="840" width="10.4" height="17.4" fill="#5C7AEA" rx="0" transform="matrix(-.62123 .54539 -.87696 -.83982 1571.236 1400.647)"/><rect x="1434" y="521" width="6.4" height="7.4" fill="#3D56B2" rx="0" transform="matrix(.15285 .96056 -1.10912 -.42767 2065.192 -164.443)"/><rect x="1700" y="493" width="6.4" height="9.4" fill="#5C7AEA" rx="0" transform="matrix(-.50459 .79692 -.83144 -.6687 2855.342 -38.414)"/><rect x="723" y="995" width="10.4" height="22.4" fill="#14279B" rx="0" transform="matrix(.1349 1.00921 -.99558 -.03524 1908.059 204.41)"/><rect x="199" y="219" width="5.4" height="8.4" fill="#E6E6E6" rx="0" transform="matrix(1.0916 .63279 -.1317 .83974 77.578 -26.325)"/><rect x="1430" y="325" width="8.4" height="23.4" fill="#E6E6E6" rx="0" transform="matrix(.27564 1.05617 -.96126 -.05535 1362.538 -665.59)"/><rect x="1587" y="686" width="5.4" height="11.4" fill="#14279B" rx="0" transform="matrix(1.057 .33705 .10285 .97887 35.33 -95.24)"/><rect x="1615" y="454" width="8.4" height="17.4" fill="#14279B" rx="0" transform="matrix(.25966 .99405 -.9695 .1397 1668.44 -1069.847)"/><rect x="356" y="801" width="6.4" height="7.4" fill="#5C7AEA" rx="0" transform="matrix(.98295 .01767 -.28005 1.01231 152.88 -73.145)"/><rect x="1563" y="841" width="7.4" height="16.4" fill="#14279B" rx="0" transform="matrix(-.6225 .48384 -.89601 -.90998 3612.002 1254.537)"/><rect x="94" y="891" width="8.4" height="9.4" fill="#14279B" rx="0" transform="matrix(-.42907 .83718 -.90507 -.56469 1203.883 1305.479)"/><rect x="795" y="900" width="8.4" height="18.4" fill="#3D56B2" rx="0" transform="matrix(.94724 .64367 -.42472 .7671 647.895 -260.78)"/><rect x="359" y="351" width="5.4" height="13.4" fill="#3D56B2" rx="0" transform="matrix(-.09931 1 -.98604 -.14054 804.437 -4.562)"/><rect x="464" y="726" width="5.4" height="10.4" fill="#E6E6E6" rx="0" transform="matrix(1.0421 .86826 -.47498 .56385 622.485 38.749)"/><rect x="1260" y="1066" width="5.4" height="13.4" fill="#E6E6E6" rx="0" transform="matrix(1.00533 .05254 .14827 1.00244 110.129 -179.43)"/><rect x="46" y="410" width="8.4" height="23.4" fill="#5C7AEA" rx="0" transform="matrix(.88317 .74472 -.48992 .71916 227.662 94.495)"/><rect x="1830" y="782" width="5.4" height="14.4" fill="#E6E6E6" rx="0" transform="matrix(-.27564 .91266 -.96126 -.44513 3096.488 -208.977)"/><rect x="887" y="742" width="8.4" height="15.4" fill="#E6E6E6" rx="0" transform="matrix(.79857 .71316 -.54585 .76477 445.088 -186.75)"/><rect x="1825" y="956" width="8.4" height="16.4" fill="#E6E6E6" rx="0" transform="matrix(.69561 .75471 -.72033 .65606 1301.858 -1048.887)"/><rect x="1768" y="659" width="7.4" height="13.4" fill="#E6E6E6" rx="0" transform="matrix(-.61892 .89162 -.79246 -.47409 3381.233 -847.39)"/><rect x="897" y="339" width="6.4" height="7.4" fill="#3D56B2" rx="0" transform="matrix(-.8906 .43864 -.45377 -.89934 1850.9 287.478)"/><rect x="560" y="391" width="7.4" height="21.4" fill="#3D56B2" rx="0" transform="matrix(.89665 .4551 -.43754 .89318 210.898 -174.213)"/><rect x="1009" y="919" width="8.4" height="23.4" fill="#E6E6E6" rx="0" transform="matrix(1.01351 .31134 -.09268 .9582 350.202 -400.948)"/><rect x="1633" y="978" width="6.4" height="11.4" fill="#3D56B2" rx="0" transform="matrix(-.6624 .66834 -.73425 -.76884 3351.266 964.513)"/><rect x="1060" y="658" width="9.4" height="20.4" fill="#5C7AEA" rx="0" transform="matrix(.68129 .53513 -.77843 .85638 777.343 -623.418)"/><rect x="1830" y="920" width="9.4" height="21.4" fill="#14279B" rx="0" transform="matrix(-.80987 .4118 -.60932 -.92493 3973.068 1326.581)"/><rect x="260" y="495" width="10.4" height="28.4" fill="#14279B" rx="0" transform="matrix(.802 .96573 -.7749 .31378 638.524 140.072)"/><rect x="187" y="184" width="8.4" height="24.4" fill="#3D56B2" rx="0" transform="matrix(.92493 .54464 -.4118 .83867 126.224 -72.482)"/><rect x="875" y="982" width="9.4" height="21.4" fill="#E6E6E6" rx="0" transform="matrix(-.99269 .03498 -.15703 -1.00183 1964.103 2017.956)"/><rect x="106" y="427" width="9.4" height="25.4" fill="#14279B" rx="0" transform="matrix(.87569 .6617 -.42986 .81714 161.154 43.121)"/><rect x="691" y="957" width="6.4" height="8.4" fill="#3D56B2" rx="0" transform="matrix(.12127 .98274 -1.05234 -.2818 1837.045 697.402)"/><rect x="747" y="488" width="6.4" height="8.4" fill="#5C7AEA" rx="0" transform="matrix(-.82715 .45845 -.55787 -.89976 1634.884 696.566)"/><rect x="1362" y="1009" width="8.4" height="18.4" fill="#E6E6E6" rx="0" transform="matrix(-.99394 .05254 -.06908 -1.00244 2714.898 2086.641)"/><rect x="888" y="864" width="9.4" height="21.4" fill="#3D56B2" rx="0" transform="matrix(.99978 .34628 -.14095 .9514 176.739 -125.232)"/><rect x="1346" y="851" width="9.4" height="26.4" fill="#14279B" rx="0" transform="matrix(.24895 .88552 -.99128 .49085 1802.767 -970)"/><rect x="871" y="300" width="5.4" height="6.4" fill="#E6E6E6" rx="0" transform="matrix(.97396 .19224 -.19119 .989 30.32 -57.35)"/><rect x="106" y="367" width="9.4" height="10.4" fill="#14279B" rx="0" transform="matrix(-.02855 .9781 -1.0158 -.22581 595.894 338.287)"/><rect x="1097" y="750" width="6.4" height="15.4" fill="#3D56B2" rx="0" transform="matrix(-.992 .29242 -.17511 -.95645 2246.656 1141.482)"/><rect x="1595" y="509" width="9.4" height="16.4" fill="#14279B" rx="0" transform="matrix(-.88079 .29277 -.5347 -.95762 3417.73 460.294)"/><rect x="315" y="645" width="10.4" height="21.4" fill="#14279B" rx="0" transform="matrix(-.24477 1.00967 -.98615 -.01762 991.762 298.957)"/><rect x="74" y="872" width="5.4" height="6.4" fill="#3D56B2" rx="0" transform="matrix(.21702 1.03275 -.9531 .07222 800.068 753.335)"/><rect x="98" y="401" width="6.4" height="13.4" fill="#E6E6E6" rx="0" transform="matrix(.21336 .99572 -1.03428 -.13994 605.587 374.623)"/><rect x="1226" y="102" width="7.4" height="16.4" fill="#14279B" rx="0" transform="matrix(.30916 .93984 -.95149 .34207 952.827 -1104.677)"/><rect x="812" y="665" width="8.4" height="24.4" fill="#3D56B2" rx="0" transform="matrix(.9642 .89658 -.55868 .51764 664.454 -186.43)"/><rect x="633" y="1044" width="6.4" height="9.4" fill="#5C7AEA" rx="0" transform="matrix(-.98848 -.07378 -.58138 -1.05504 2262.357 2421.122)"/><rect x="1889" y="728" width="7.4" height="7.4" fill="#5C7AEA" rx="0" transform="matrix(-.99255 -.01762 -.12187 -1.00967 3860.464 1769.837)"/><rect x="379" y="672" width="6.4" height="17.4" fill="#3D56B2" rx="0" transform="matrix(.38915 1.00745 -.91696 .19583 844.222 250.591)"/><rect x="28" y="767" width="5.4" height="10.4" fill="#14279B" rx="0" transform="matrix(.7903 .44268 -.6386 .90763 432.383 53.426)"/><rect x="1159" y="29" width="7.4" height="20.4" fill="#3D56B2" rx="0" transform="matrix(-.74242 .43373 -.71342 -.93015 2086.215 -160.211)"/><rect x="557" y="185" width="8.4" height="8.4" fill="#14279B" rx="0" transform="matrix(-.32557 .97974 -.94552 -.22619 922.801 -376.818)"/><rect x="1805" y="128" width="7.4" height="8.4" fill="#5C7AEA" rx="0" transform="matrix(-.87672 .12814 -.66356 -1.04362 3648.351 626.08)"/><rect x="341" y="699" width="7.4" height="12.4" fill="#3D56B2" rx="0" transform="matrix(.92936 .43844 -.37534 .89893 350.211 -85.872)"/><rect x="1860" y="1042" width="7.4" height="13.4" fill="#5C7AEA" rx="0" transform="matrix(-.96222 .62334 -.37268 -.79783 3941.927 428.496)"/><rect x="1363" y="1059" width="5.4" height="9.4" fill="#E6E6E6" rx="0" transform="matrix(-1.01925 -.14132 -.17622 -1.00554 3128.474 2567.108)"/><rect x="1495" y="955" width="8.4" height="23.4" fill="#14279B" rx="0" transform="matrix(.97094 .37604 -.25616 .93073 468.8 -627.95)"/><rect x="926" y="1024" width="7.4" height="12.4" fill="#14279B" rx="0" transform="matrix(-.60718 .70808 -.8051 -.70808 2417.998 1150.085)"/><rect x="1031" y="455" width="6.4" height="11.4" fill="#5C7AEA" rx="0" transform="matrix(-.72715 .78913 -.67837 -.63903 2108.468 -243.38)"/><rect x="516" y="556" width="6.4" height="18.4" fill="#5C7AEA" rx="0" transform="matrix(.62463 .84912 -.77204 .55143 597.32 -105.1)"/><rect x="1096" y="210" width="7.4" height="8.4" fill="#5C7AEA" rx="0" transform="matrix(-.8339 .32562 -.64928 -.94566 2231.644 77.874)"/><rect x="792" y="822" width="5.4" height="5.4" fill="#5C7AEA" rx="0" transform="matrix(.96664 .71592 -.3958 .74136 496.684 -157.505)"/><rect x="1571" y="392" width="8.4" height="24.4" fill="#5C7AEA" rx="0" transform="matrix(.38323 .97542 -.92251 .26136 1393.4 -1459.302)"/><rect x="1853" y="566" width="6.4" height="9.4" fill="#5C7AEA" rx="0" transform="matrix(.81593 .95814 -.73049 .3678 1026.314 -989.157)"/><rect x="1018" y="974" width="6.4" height="11.4" fill="#3D56B2" rx="0" transform="matrix(-.32612 .96651 -.94726 -.25898 2249.302 210.754)"/><rect x="1186" y="87" width="6.4" height="7.4" fill="#3D56B2" rx="0" transform="matrix(1.08932 .41919 .0611 .94151 -15.225 -196.693)"/><rect x="1760" y="170" width="8.4" height="15.4" fill="#E6E6E6" rx="0" transform="matrix(.23107 .99677 -1.04816 -.19375 1664.668 -1235.296)"/><rect x="925" y="266" width="10.4" height="15.4" fill="#5C7AEA" rx="0" transform="matrix(.97693 .1573 -.18937 .99313 85.598 -242.204)"/><rect x="708" y="563" width="6.4" height="11.4" fill="#5C7AEA" rx="0" transform="matrix(.40674 .9707 -.91355 .27835 941.462 -180.01)"/><rect x="762" y="196" width="6.4" height="15.4" fill="#E6E6E6" rx="0" transform="matrix(.79854 .78143 -.63307 .63279 323.167 -603.572)"/><rect x="1004" y="83" width="5.4" height="14.4" fill="#5C7AEA" rx="0" transform="matrix(.31043 1.03465 -.95567 .03613 786.673 -684.892)"/><rect x="344" y="117" width="7.4" height="13.4" fill="#14279B" rx="0" transform="matrix(-.7691 .72033 -.64554 -.69561 689.443 -58.933)"/><rect x="666" y="618" width="6.4" height="16.4" fill="#14279B" rx="0" transform="matrix(-.42182 .76616 -.95126 -.64289 1735.038 504.379)"/><rect x="627" y="841" width="9.4" height="21.4" fill="#14279B" rx="0" transform="matrix(-.94228 .01835 -.51094 -1.0513 1848.478 1940.754)"/><rect x="687" y="1031" width="6.4" height="7.4" fill="#3D56B2" rx="0" transform="matrix(.05222 .99817 -.99818 .0698 1631.487 297.643)"/><rect x="188" y="554" width="8.4" height="21.4" fill="#5C7AEA" rx="0" transform="matrix(.69034 .49229 -.78592 .88811 409.728 -65.325)"/><rect x="1608" y="92" width="7.4" height="11.4" fill="#E6E6E6" rx="0" transform="matrix(-.38429 .83974 -.90127 -.63279 2275.66 -670.205)"/><rect x="1613" y="81" width="6.4" height="16.4" fill="#14279B" rx="0" transform="matrix(.98903 -.01767 -.06839 1.01231 12.163 -228.52)"/><rect x="843" y="889" width="5.4" height="15.4" fill="#E6E6E6" rx="0" transform="matrix(-.77256 .36106 -.75704 -.9406 2483.787 1538.62)"/><rect x="564" y="674" width="9.4" height="26.4" fill="#14279B" rx="0" transform="matrix(-.96411 .55 -.3336 -.84691 1282.417 876.493)"/><rect x="1593" y="189" width="8.4" height="17.4" fill="#14279B" rx="0" transform="matrix(.55709 .8336 -.82385 .56227 873.431 -1412.766)"/><rect x="1866" y="782" width="6.4" height="8.4" fill="#5C7AEA" rx="0" transform="matrix(-.91807 .3092 -.40857 -.95164 3966.013 1021.684)"/><rect x="694" y="1049" width="6.4" height="14.4" fill="#3D56B2" rx="0" transform="matrix(-.9185 .20842 -.4768 -.98054 2188.067 1897.78)"/><rect x="1358" y="1008" width="7.4" height="15.4" fill="#5C7AEA" rx="0" transform="matrix(.9939 -.03524 -.08691 1.00921 110.963 -152.742)"/><rect x="1121" y="485" width="5.4" height="11.4" fill="#E6E6E6" rx="0" transform="matrix(-.05971 1.0298 -.96053 -.18158 1515.03 -233.84)"/><rect x="1180" y="391" width="8.4" height="24.4" fill="#3D56B2" rx="0" transform="matrix(.99233 .8868 -.50758 .55413 418.79 -508.325)"/><rect x="1424" y="200" width="7.4" height="20.4" fill="#14279B" rx="0" transform="matrix(.98815 .19084 -.15646 .98178 59.517 -293.55)"/><rect x="28" y="878" width="8.4" height="11.4" fill="#3D56B2" rx="0" transform="matrix(.97774 .54764 -.32043 .84329 424.378 124.235)"/><rect x="786" y="946" width="6.4" height="16.4" fill="#14279B" rx="0" transform="matrix(.82376 .54764 -.55753 .84329 543.737 -199.716)"/><rect x="943" y="64" width="8.4" height="21.4" fill="#14279B" rx="0" transform="matrix(.8214 .64436 -.57303 .76792 213.32 -659.233)"/><rect x="160" y="936" width="6.4" height="10.4" fill="#5C7AEA" rx="0" transform="matrix(.4873 1.01112 -.92917 .12415 1129.755 691.057)"/><rect x="1749" y="918" width="6.4" height="12.4" fill="#E6E6E6" rx="0" transform="matrix(.99844 .75975 -.41723 .68408 711.616 -666.813)"/><rect x="1424" y="320" width="9.4" height="9.4" fill="#5C7AEA" rx="0" transform="matrix(.8642 .91458 -.61436 .50696 514.117 -709.777)"/><rect x="1080" y="855" width="7.4" height="7.4" fill="#E6E6E6" rx="0" transform="matrix(-.9888 .15797 -.0872 -.9974 2279.536 1391.665)"/><rect x="728" y="633" width="6.4" height="16.4" fill="#3D56B2" rx="0" transform="matrix(.25758 .95481 -.95864 .32877 1195.19 -370.527)"/><rect x="1661" y="354" width="7.4" height="12.4" fill="#14279B" rx="0" transform="matrix(.5569 .97496 -.8971 .22509 1188.672 -1285.767)"/><rect x="1013" y="250" width="5.4" height="7.4" fill="#3D56B2" rx="0" transform="matrix(.99592 .07014 -.01478 1.00306 31.17 -178.772)"/><rect x="783" y="20" width="9.4" height="25.4" fill="#5C7AEA" rx="0" transform="matrix(.99977 .27568 -.14077 .9614 10.484 -202.141)"/><rect x="993" y="339" width="9.4" height="15.4" fill="#5C7AEA" rx="0" transform="matrix(.2069 1.01185 -.98107 .03533 1192.717 -833.092)"/><rect x="358" y="916" width="8.4" height="20.4" fill="#3D56B2" rx="0" transform="matrix(-.24351 .8768 -.97625 -.59141 1372.947 1281.103)"/><rect x="1630" y="231" width="7.4" height="12.4" fill="#14279B" rx="0" transform="matrix(.9891 .53857 -.21062 .89633 93.487 -355.801)"/><rect x="1114" y="569" width="7.4" height="14.4" fill="#14279B" rx="0" transform="matrix(-.03321 .96185 -1.03014 -.2758 1902.42 -378.969)"/><rect x="1553" y="426" width="6.4" height="15.4" fill="#5C7AEA" rx="0" transform="matrix(.8422 .45461 -.54676 .89223 464.243 -742.286)"/><rect x="685" y="761" width="8.4" height="12.4" fill="#3D56B2" rx="0" transform="matrix(.8524 .81965 -.62317 .57393 821.73 -213.952)"/><rect x="1606" y="153" width="6.4" height="8.4" fill="#3D56B2" rx="0" transform="matrix(.62006 .8086 -.76947 .60932 681.769 -984.896)"/><rect x="402" y="224" width="8.4" height="15.4" fill="#E6E6E6" rx="0" transform="matrix(.90412 .77456 -.50511 .67332 195.944 -145.156)"/><rect x="171" y="641" width="5.4" height="9.4" fill="#E6E6E6" rx="0" transform="matrix(.52298 .94098 -.87237 .34249 738.175 270.21)"/><rect x="1866" y="1023" width="5.4" height="9.4" fill="#3D56B2" rx="0" transform="matrix(.97943 -.03544 .17108 1.0148 76.069 -278.498)"/><rect x="1009" y="553" width="6.4" height="18.4" fill="#E6E6E6" rx="0" transform="matrix(.39377 .86616 -.92718 .50008 1077.651 -613.335)"/><rect x="1905" y="548" width="6.4" height="8.4" fill="#5C7AEA" rx="0" transform="matrix(-.80024 .29688 -.75087 -.97106 4121.544 858.375)"/><rect x="973" y="931" width="8.4" height="13.4" fill="#5C7AEA" rx="0" transform="matrix(-.7096 .37101 -.84676 -.96651 2786.05 1743.289)"/><rect x="1022" y="575" width="7.4" height="13.4" fill="#E6E6E6" rx="0" transform="matrix(.84937 .31205 -.59048 .9604 428.686 -441.193)"/><rect x="1409" y="169" width="6.4" height="9.4" fill="#14279B" rx="0" transform="matrix(.99253 .06977 -.13962 .99772 17.455 -73.478)"/><rect x="1765" y="709" width="8.4" height="16.4" fill="#E6E6E6" rx="0" transform="matrix(.39587 .99069 -.89588 .28408 1589.603 -798.156)"/><rect x="1425" y="209" width="7.4" height="9.4" fill="#5C7AEA" rx="0" transform="matrix(-.70034 .41435 -.84043 -.93064 2749.785 98.309)"/><rect x="1110" y="679" width="9.4" height="19.4" fill="#14279B" rx="0" transform="matrix(-.83939 .42268 -.56576 -.90645 2539.534 861.262)"/><rect x="388" y="743" width="7.4" height="13.4" fill="#E6E6E6" rx="0" transform="matrix(-.97506 -.0716 .02409 -1.0238 607.435 1635.72)"/><rect x="1741" y="435" width="8.4" height="14.4" fill="#14279B" rx="0" transform="matrix(-.94957 .09067 -.17563 -1.03634 3313.84 1242.664)"/><rect x="652" y="142" width="8.4" height="8.4" fill="#3D56B2" rx="0" transform="matrix(.45778 .99087 -.94488 .13926 542.441 -501.454)"/><rect x="534" y="689" width="8.4" height="14.4" fill="#5C7AEA" rx="0" transform="matrix(1.03082 .6792 -.2865 .78133 346.231 -69.1)"/><rect x="170" y="289" width="6.4" height="6.4" fill="#E6E6E6" rx="0" transform="matrix(.85313 .89591 -.68149 .4565 331.45 21.845)"/><rect x="1824" y="209" width="8.4" height="14.4" fill="#5C7AEA" rx="0" transform="matrix(-.7454 .42288 -.76625 -.90686 3453.027 -296.996)"/><rect x="1064" y="670" width="6.4" height="9.4" fill="#3D56B2" rx="0" transform="matrix(.47103 1.01404 -1.01084 -.05314 1543.646 -183.446)"/></svg>